<?xml version="1.0" standalone="no"?>
<!DOCTYPE svg PUBLIC "-//W3C//DTD SVG 20010904//EN"
 "http://www.w3.org/TR/2001/REC-SVG-20010904/DTD/svg10.dtd">
<svg version="1.0" xmlns="http://www.w3.org/2000/svg"
 width="500.000000pt" height="500.000000pt" viewBox="0 0 500.000000 500.000000"
 preserveAspectRatio="xMidYMid meet">

<g transform="translate(0.000000,500.000000) scale(0.100000,-0.100000)"
fill="#000000" stroke="none">
<path d="M1316 3098 c-25 -90 -96 -234 -149 -299 -24 -30 -69 -71 -98 -91 -51
-34 -126 -65 -134 -56 -3 2 18 96 45 209 28 120 45 208 40 213 -12 12 -10 18
-65 -215 l-47 -197 -26 14 c-31 16 -68 18 -76 5 -15 -23 20 -52 75 -63 14 -3
13 -14 -8 -108 -33 -148 -52 -261 -46 -276 8 -21 22 -17 35 12 9 20 9 27 0 33
-10 6 -7 36 13 132 35 168 44 201 55 194 4 -3 42 -60 84 -128 86 -139 121
-182 170 -202 26 -11 41 -12 65 -4 45 16 38 30 -13 23 -40 -6 -47 -3 -85 31
-23 21 -64 76 -93 124 -28 47 -65 105 -81 129 -16 24 -27 45 -25 46 1 2 24 11
49 20 138 52 273 228 338 440 25 81 24 76 8 76 -8 0 -21 -26 -31 -62z m-431
-450 c7 -7 2 -8 -15 -3 -14 4 -29 12 -35 17 -7 7 -2 8 15 3 14 -4 30 -12 35
-17z"/>
<path d="M2245 3127 c-4 -8 -32 -28 -63 -44 -67 -33 -155 -111 -171 -151 l-12
-29 -193 0 -193 0 13 51 c8 28 14 59 14 69 0 26 -17 12 -24 -20 -24 -99 -26
-103 -51 -103 -29 0 -30 6 -11 77 8 31 10 55 5 59 -10 6 -13 -1 -32 -76 l-13
-55 -115 -5 c-144 -6 -147 -24 -4 -28 68 -2 105 -7 105 -14 0 -6 -9 -50 -21
-99 -17 -72 -26 -93 -51 -114 -40 -33 -68 -33 -68 1 0 32 -17 64 -34 64 -28 0
-76 -57 -76 -90 0 -66 46 -93 85 -50 10 11 28 20 40 20 11 0 30 7 41 15 10 8
21 15 25 15 3 0 -12 -84 -33 -187 -40 -200 -47 -268 -25 -261 7 3 15 31 18 69
6 57 78 422 113 569 11 48 16 55 39 58 15 2 27 1 27 -2 0 -3 -9 -45 -21 -93
-29 -124 -107 -521 -111 -563 -2 -26 1 -35 12 -35 11 0 15 13 16 50 2 49 59
339 108 550 l23 100 191 2 192 2 0 -33 c0 -18 7 -41 15 -52 14 -18 15 -16 9
27 -3 29 -2 49 5 53 5 4 8 12 6 19 -8 19 29 70 76 109 45 37 120 80 126 74 2
-2 -24 -118 -58 -257 -127 -520 -146 -619 -117 -619 21 0 43 51 27 61 -9 5 -2
52 26 180 20 96 39 177 42 182 2 4 16 -2 30 -13 80 -63 226 36 313 213 53 106
68 188 47 239 -22 53 -68 78 -142 78 -33 0 -74 -4 -92 -9 -20 -6 -35 -5 -42 2
-7 7 -12 6 -16 -6z m220 -21 c47 -20 58 -47 52 -124 -11 -139 -144 -334 -246
-359 -54 -14 -88 -3 -102 33 -8 22 0 65 37 218 25 105 48 199 50 208 9 33 149
49 209 24z m-1135 -453 c-1 -24 -2 -26 -11 -10 -5 9 -7 22 -4 27 10 17 15 11
15 -17z m-10 -61 c0 -5 -6 -12 -14 -15 -22 -9 -39 19 -32 49 l7 26 19 -25 c11
-14 20 -30 20 -35z"/>
<path d="M3671 3085 c-11 -15 -29 -54 -40 -88 -50 -150 -167 -697 -156 -725
10 -28 26 3 30 59 3 48 52 287 91 444 8 33 35 101 60 150 46 91 65 167 46 179
-6 3 -19 -5 -31 -19z m-6 -88 c-22 -53 -27 -46 -8 10 9 26 18 43 20 37 2 -6
-3 -27 -12 -47z"/>
<path d="M3575 3078 c-20 -30 -56 -143 -90 -291 -28 -118 -70 -208 -107 -231
-25 -15 -37 1 -47 63 -4 28 -10 54 -13 56 -2 3 -23 -18 -46 -46 -44 -55 -53
-47 -26 21 19 47 48 68 70 49 19 -16 30 -4 14 16 -21 26 -49 17 -94 -29 -65
-68 -113 -71 -137 -9 -12 32 -26 29 -34 -9 -13 -61 -83 -178 -106 -178 -16 0
-10 75 11 142 11 34 20 69 20 76 0 26 -24 6 -36 -31 -18 -50 -72 -127 -90
-127 -17 0 -34 39 -34 78 0 54 -14 55 -58 1 -44 -55 -53 -47 -26 21 19 47 48
68 70 49 19 -16 30 -4 14 16 -32 39 -73 10 -123 -86 -43 -83 -102 -169 -117
-169 -17 0 -11 63 15 150 13 47 20 89 16 93 -4 4 -25 -2 -45 -14 -20 -12 -39
-19 -42 -16 -3 3 4 23 15 46 38 73 20 119 -26 69 -44 -49 -56 -105 -28 -128
14 -12 53 -10 86 4 15 7 15 2 -1 -56 -27 -100 -31 -142 -16 -163 13 -18 15
-18 40 -2 14 10 43 42 63 72 28 44 39 53 49 44 11 -9 23 -2 54 32 l40 44 0
-30 c0 -65 52 -96 94 -56 l21 20 0 -46 c0 -33 5 -49 18 -57 16 -9 25 -4 62 37
24 26 51 67 61 92 18 49 25 53 44 30 15 -18 53 -20 82 -4 19 10 20 9 16 -15
-3 -14 0 -34 7 -43 12 -16 17 -14 54 27 40 44 41 44 41 18 0 -34 18 -75 37
-82 19 -8 47 8 73 41 17 22 21 23 17 8 -3 -11 -18 -80 -32 -154 -26 -137 -26
-183 0 -148 7 10 11 26 8 35 -4 16 13 112 56 309 38 173 52 218 97 310 51 101
67 173 41 173 -9 0 -23 -10 -32 -22z m0 -81 c-22 -53 -27 -46 -8 10 9 26 18
43 20 37 2 -6 -3 -27 -12 -47z m-1045 -266 c-21 -42 -30 -51 -30 -28 0 16 40
81 46 74 3 -3 -4 -23 -16 -46z"/>
<path d="M3881 3038 c-17 -35 -45 -119 -61 -188 -16 -69 -35 -142 -40 -163
-13 -43 -88 -127 -115 -127 -16 0 -17 6 -11 61 4 45 3 60 -6 57 -26 -9 -36
-103 -15 -132 17 -23 46 -15 93 26 19 17 34 26 34 21 0 -5 -9 -48 -19 -96 -18
-84 -12 -129 9 -70 46 124 41 116 62 93 10 -11 21 -20 24 -20 21 0 86 38 117
68 33 32 37 34 37 15 0 -39 22 -38 61 4 l37 40 11 -44 c20 -78 71 -72 125 14
20 32 36 61 36 66 0 18 -20 0 -52 -47 -59 -88 -82 -86 -94 7 -4 26 -12 47 -18
47 -6 -1 -26 -21 -44 -46 -19 -25 -36 -44 -38 -42 -8 9 18 80 40 104 19 23 25
25 44 15 13 -7 23 -7 27 -2 6 11 -25 31 -49 31 -8 0 -28 -17 -43 -37 -85 -112
-162 -173 -198 -159 -16 6 -15 10 12 39 34 36 45 60 37 82 -10 25 -31 17 -63
-22 -17 -21 -31 -32 -31 -26 0 49 51 214 93 303 54 112 72 190 44 190 -9 0
-28 -25 -46 -62z m18 -37 c-6 -18 -13 -30 -15 -28 -2 2 1 18 7 36 6 18 13 30
15 28 2 -2 -1 -18 -7 -36z m-60 -407 c-31 -33 -36 -22 -8 17 13 19 25 27 27
20 2 -7 -6 -23 -19 -37z"/>
<path d="M1657 2760 c-53 -42 -87 -198 -51 -234 30 -30 62 -19 123 42 64 63
90 102 69 102 -7 -1 -28 -21 -45 -45 -18 -24 -49 -56 -69 -71 -45 -35 -68 -25
-72 34 -3 36 2 46 42 91 44 49 57 83 37 95 -5 3 -20 -3 -34 -14z"/>
<path d="M3645 2741 c-3 -5 -1 -12 5 -16 12 -7 30 2 30 16 0 12 -27 12 -35 0z"/>
</g>
</svg>
